<svg xmlns="http://www.w3.org/2000/svg" viewBox="0 0 1440 320"><path fill="#e3cde5" fill-opacity="1" d="M0,256L34.3,240C68.6,224,137,192,206,181.3C274.3,171,343,181,411,170.7C480,160,549,128,617,122.7C685.7,117,754,139,823,128C891.4,117,960,75,1029,85.3C1097.1,96,1166,160,1234,170.7C1302.9,181,1371,139,1406,117.3L1440,96L1440,0L1405.7,0C1371.4,0,1303,0,1234,0C1165.7,0,1097,0,1029,0C960,0,891,0,823,0C754.3,0,686,0,617,0C548.6,0,480,0,411,0C342.9,0,274,0,206,0C137.1,0,69,0,34,0L0,0Z"></path></svg>
